# AST/ASF file generated using VICON BodyLanguage
# -----------------------------------------------
:version 1.10
:name VICON
:units
  mass 1.0
  length 0.45
  angle deg
:documentation
   .ast/.asf automatically generated from VICON data using
   VICON BodyBuilder and BodyLanguage model FoxedUp or BRILLIANT.MOD
:root
   order TX TY TZ RX RY RZ
   axis XYZ
   position 0 0 0  
   orientation 0 0 0 
:bonedata
  begin
     id 1 
     name lhipjoint
     direction 0.610259 -0.730986 0.305356 
     length 2.50941 
     axis 0 0 0  XYZ
  end
  begin
     id 2 
     name lfemur
     direction 0.34202 -0.939693 0  
     length 7.48822  
     axis 0 0 20  XYZ
    dof rx ry rz
    limits (-160.0 20.0)
           (-70.0 70.0)
           (-60.0 70.0)
  end
  begin
     id 3 
     name ltibia
     direction 0.34202 -0.939693 0   
     length 7.60141   
     axis 0 0 20   XYZ
    dof rx
    limits (-10.0 170.0)
  end
  begin
     id 4 
     name lfoot
     direction 0.0673488 -0.185039 0.980421   
     length 2.04049   
     axis -90 7.62852e-016 20   XYZ
    dof rx rz
    limits (-45.0 90.0)
           (-70.0 20.0)
  end
  begin
     id 5 
     name ltoes
     direction 1.5356e-011 -4.21729e-011 1   
     length 1.02897   
     axis -90 7.62852e-016 20   XYZ
    dof rx
    limits (-90.0 20.0)
  end
  begin
     id 6 
     name rhipjoint
     direction -0.57612 -0.754205 0.315056   
     length 2.43216  
     axis 0 0 0  XYZ 
  end
  begin
     id 7 
     name rfemur
     direction -0.34202 -0.939693 0   
     length 7.42799   
     axis 0 0 -20   XYZ
    dof rx ry rz
    limits (-160.0 20.0)
           (-70.0 70.0)
           (-70.0 60.0)
  end
  begin
     id 8 
     name rtibia
     direction -0.34202 -0.939693 0   
     length 7.69484   
     axis 0 0 -20   XYZ
    dof rx
    limits (-10.0 170.0)
 end
 begin
     id 9 
     name rfoot
     direction -0.111837 -0.30727 0.945028   
     length 2.15769  
     axis -90 -7.62852e-016 -20   XYZ
    dof rx rz
    limits (-45.0 90.0)
           (-20.0 70.0)
  end
  begin
     id 10 
     name rtoes
     direction -1.53539e-011 -4.21878e-011 1   
     length 1.07391   
     axis -90 -7.62852e-016 -20   XYZ
    dof rx
    limits (-90.0 20.0)
  end
  begin
     id 11 
     name lowerback
     direction 0.00552624 0.990109 -0.140195   
     length 2.12403   
     axis 0 0 0   XYZ
    dof rx ry rz
    limits (-20.0 45.0)
           (-30.0 30.0)
           (-30.0 30.0)
  end
  begin
     id 12 
     name upperback
     direction 0.00361898 0.999976 -0.00584723   
     length 2.13232   
     axis 0 0 0   XYZ
    dof rx ry rz
    limits (-20.0 45.0)
           (-30.0 30.0)
           (-30.0 30.0)
  end
  begin
     id 13 
     name thorax
     direction -0.000331275 0.998253 0.0590847   
     length 2.17688   
     axis 0 0 0   XYZ
    dof rx ry rz
    limits (-20.0 45.0)
           (-30.0 30.0)
           (-30.0 30.0)
  end
  begin
     id 14 
     name lowerneck
     direction -0.0561561 0.979832 0.19177   
     length 1.64159   
     axis 0 0 0   XYZ
    dof rx ry rz
    limits (-20.0 45.0)
           (-30.0 30.0)
           (-30.0 30.0)
  end
  begin
     id 15 
     name upperneck
     direction 0.0827153 0.979385 -0.184293   
     length 1.68939   
     axis 0 0 0   XYZ
    dof rx ry rz
    limits (-20.0 45.0)
           (-30.0 30.0)
           (-30.0 30.0)
  end
  begin
     id 16
     name head
     direction 0.0278583 0.995936 -0.0856488  
     length 1.70207  
     axis 0 0 0   XYZ
    dof rx ry rz
    limits (-20.0 45.0)
           (-30.0 30.0)
           (-30.0 30.0)
  end
  begin
     id 17 
     name lclavicle
     direction 0.950993 0.301131 -0.0702275  
     length 3.41652  
     axis 0 0 0   XYZ
    dof ry rz
    limits (-20.0 10.0)
           (0.0 20.0)
  end
  begin
     id 18 
     name lhumerus
     direction 1 -4.48981e-011 -3.9662e-029   
     length 5.32955   
     axis 180 -30 -90   XYZ
    dof rx ry rz
    limits (-60.0 90.0)
           (-90.0 90.0)
           (-90.0 90.0)
  end
  begin
     id 19
     name lradius
     direction 1 -4.48925e-011 -9.0549e-027   
     length 3.69232   
     axis 180 -30 -90   XYZ
    dof rx
    limits (-10.0 170.0)
  end
  begin
     id 20
     name lwrist
     direction 1 -4.49007e-011 -1.49005e-026   
     length 1.84616   
     axis 9.0955e-015 90 90   XYZ
    dof ry
    limits (-180.0 0.0)
 end
  begin
     id 21 
     name lhand
     direction 1 -4.49016e-011 -2.98023e-026   
     length 0.536598   
     axis 1.90115e-014 90 90   XYZ
    dof rx rz
    limits (-90.0 90.0)
           (-45.0 45.0)
  end
  begin
     id 22 
     name lfingers
     direction 1 -4.48924e-011 -5.9578e-026   
     length 0.432619   
     axis 3.80223e-014 90 90   XYZ
    dof rx
    limits (0.0 90.0)
  end
  begin
     id 23
     name lthumb
     direction 0.707107 -6.34947e-011 0.707107   
     length 0.621157   
     axis -90 45 -3.84942e-014   XYZ
    dof rx rz
    limits (-45.0 45.0)
           (-45.0 45.0)
  end
  begin
     id 24 
     name rclavicle
     direction -0.955495 0.276497 -0.102848   
     length 3.36357  
     axis 0 0 0   XYZ 
    dof ry rz
    limits (-10.0 20.0)
           (-20.0 0.0)
  end
  begin
     id 25 
     name rhumerus
     direction -1 -4.48961e-011 3.30983e-027  
     length 5.23431   
     axis 180 30 90   XYZ
    dof rx ry rz
    limits (-90.0 60.0)
           (-90.0 90.0)
           (-90.0 90.0)
  end
  begin
     id 26 
     name rradius
     direction -1 -4.48965e-011 -6.63263e-027   
     length 3.55301   
     axis 180 30 90   XYZ
    dof rx
    limits (-10.0 170.0)
  end
  begin
     id 27 
     name rwrist
     direction -1 -4.48942e-011 -1.48958e-026   
     length 1.77651   
     axis 9.0955e-015 -90 -90   XYZ
    dof ry
    limits (-180.0 0.0)
  end
  begin
     id 28
     name rhand
     direction -1 -4.48977e-011 -2.97966e-026   
     length 0.772522   
     axis 1.90115e-014 -90 -90   XYZ
    dof rx rz
    limits (-90.0 90.0)
           (-45.0 45.0)
  end
  begin
     id 29
     name rfingers
     direction -1 -4.49135e-011 -5.96389e-026   
     length 0.622827   
     axis 3.80223e-014 -90 -90   XYZ
    dof rx
    limits (0.0 90.0)
  end
  begin
     id 30
     name rthumb
     direction -0.707107 -6.34969e-011 0.707107   
     length 0.894259   
     axis -90 -45 3.84942e-014   XYZ
    dof rx rz
    limits (-45.0 45.0)
           (-45.0 45.0)
  end
:hierarchy
  begin
    root lhipjoint rhipjoint lowerback
    lhipjoint lfemur
    lfemur ltibia
    ltibia lfoot
    lfoot ltoes
    rhipjoint rfemur
    rfemur rtibia
    rtibia rfoot
    rfoot rtoes
    lowerback upperback
    upperback thorax
    thorax lowerneck lclavicle rclavicle
    lowerneck upperneck
    upperneck head
    lclavicle lhumerus
    lhumerus lradius
    lradius lwrist
    lwrist lhand lthumb
    lhand lfingers
    rclavicle rhumerus
    rhumerus rradius
    rradius rwrist
    rwrist rhand rthumb
    rhand rfingers
  end

#!OML:ASF F:\VICON\USERDATA\INSTALL\rory3\rory3.ASF
:FULLY-SPECIFIED
:DEGREES
299
root -3.56409 18.0585 -1.01717 -3.99692 -34.2183 2.4771
lowerback 12.8187 6.40837 2.85465
upperback 1.97899 8.76688 -1.61327
thorax -4.34994 4.27462 -4.65972
lowerneck -19.1021 14.4141 -4.58812
upperneck 43.4341 23.8608 2.55751
head 18.7059 8.94095 6.66201
rclavicle -1.31583e-013 1.41137e-014
rhumerus -39.7568 -15.4837 -75.586
rradius 32.8293
rwrist 3.24549
rhand -16.3816 8.40143
rfingers 7.12502
rthumb 9.83201 -21.349
lclavicle -1.31583e-013 1.41137e-014
lhumerus -35.8723 9.69859 79.5537
lradius 30.2306
lwrist -10.6112
lhand -14.8147 28.0033
lfingers 7.12502
lthumb 11.3435 57.6765
rfemur -14.3569 -3.21535 17.0268
rtibia 27.1712
rfoot -4.6798 -11.3273
rtoes 7.15975
lfemur 2.55052 -17.8889 -18.9934
ltibia 38.2944
lfoot 7.85715 -20.8948
ltoes -5.83288
300
root -3.45577 18.0482 -1.07582 -4.00657 -33.9055 2.64146
lowerback 12.6402 6.35814 2.67154
upperback 1.97585 8.66816 -1.70878
thorax -4.27697 4.23123 -4.62271
lowerneck -19.1798 14.3759 -4.61049
upperneck 43.5955 23.7626 2.74483
head 18.7804 8.90687 6.75276
rclavicle -3.4427e-014 2.88238e-015
rhumerus -39.9253 -15.7415 -75.4636
rradius 32.7517
rwrist 3.26818
rhand -16.5427 8.74981
rfingers 7.12502
rthumb 9.67654 -21.0079
lclavicle -3.4427e-014 2.88238e-015
lhumerus -35.7638 9.4238 79.6567
lradius 30.4658
lwrist -10.3907
lhand -14.7287 28.5994
lfingers 7.12502
lthumb 11.4264 58.268
rfemur -14.9392 -3.33647 16.6371
rtibia 27.411
rfoot -4.34663 -11.4114
rtoes 6.80964
lfemur 3.48739 -18.4758 -19.1881
ltibia 36.3962
lfoot 8.68202 -21.3
ltoes -4.23791
301
root -3.34481 18.0321 -1.13662 -4.00051 -33.6191 2.80673
lowerback 12.5347 6.33644 2.43558
upperback 1.93073 8.60283 -1.79501
thorax -4.29403 4.20111 -4.56572
lowerneck -19.1903 14.3487 -4.56604
upperneck 43.6213 23.6977 2.77576
head 18.8031 8.88834 6.75471
rclavicle 1.19581e-014 -1.58034e-014
rhumerus -40.1778 -16.0213 -75.2966
rradius 32.7439
rwrist 3.39632
rhand -16.056 8.79377
rfingers 7.12502
rthumb 10.1462 -20.9416
lclavicle 1.19581e-014 -1.58034e-014
lhumerus -35.6666 9.15816 79.7213
lradius 30.6214
lwrist -10.4282
lhand -14.7098 28.6095
lfingers 7.12502
lthumb 11.4446 58.2772
rfemur -15.5735 -3.34429 16.2434
rtibia 27.7003
rfoot -4.04174 -11.5614
rtoes 6.54004
lfemur 4.45551 -18.964 -19.3814
ltibia 34.3937
lfoot 9.06016 -21.9922
ltoes -3.51613
302
root -3.23044 18.0075 -1.19634 -4.03307 -33.2861 2.96906
lowerback 12.4291 6.28312 2.20077
upperback 1.93444 8.49722 -1.84431
thorax -4.26825 4.15296 -4.46148
lowerneck -19.2419 14.3416 -4.62361
upperneck 43.5967 23.7113 2.77663
head 18.7903 8.88613 6.76659
rclavicle 3.844e-014 -4.82053e-015
rhumerus -40.3594 -16.1294 -75.1974
rradius 32.7786
rwrist 3.32306
rhand -16.0815 8.66773
rfingers 7.12502
rthumb 10.1215 -21.0688
lclavicle 3.844e-014 -4.82053e-015
lhumerus -35.4486 9.1368 79.7482
lradius 30.7176
lwrist -10.8016
lhand -14.6505 28.5854
lfingers 7.12502
lthumb 11.5019 58.2499
rfemur -16.1962 -3.40996 15.8243
rtibia 28.0696
rfoot -3.80099 -11.721
rtoes 6.57603
lfemur 5.53211 -19.2577 -19.6195
ltibia 32.2789
lfoot 8.97661 -22.5419
ltoes -3.28674
303
root -3.11086 17.9821 -1.25718 -4.0602 -32.9251 3.12202
lowerback 12.3291 6.22693 2.016
upperback 1.95299 8.39452 -1.90091
thorax -4.22072 4.10634 -4.39167
lowerneck -19.228 14.4024 -4.38329
upperneck 43.6306 23.8378 2.55193
head 18.8988 8.92326 6.67784
rclavicle -6.98231e-014 1.80894e-014
rhumerus -40.5746 -16.077 -75.1821
rradius 32.9663
rwrist 2.91153
rhand -16.4692 8.54266
rfingers 7.12502
rthumb 9.74747 -21.2118
lclavicle -6.98231e-014 1.80894e-014
lhumerus -35.2129 8.96302 79.8791
lradius 30.8838
lwrist -10.8323
lhand -14.8353 27.9202
lfingers 7.12502
lthumb 11.3236 57.5945
rfemur -16.8527 -3.53486 15.3921
rtibia 28.4792
rfoot -3.65115 -11.8679
rtoes 7.16983
lfemur 6.57331 -19.5292 -19.8457
ltibia 30.086
lfoot 9.29856 -22.7237
ltoes 0.0577889
304
root -2.98826 17.9577 -1.3189 -4.03502 -32.6281 3.13683
lowerback 12.2772 6.19442 1.97478
upperback 1.94777 8.34418 -1.93819
thorax -4.20221 4.08264 -4.39479
lowerneck -19.0799 14.5451 -3.73449
upperneck 43.7939 24.0912 2.06038
head 19.1903 9.00735 6.46427
rclavicle 2.54072e-015 -1.54058e-015
rhumerus -40.8957 -16.2288 -75.0107
rradius 33.1145
rwrist 2.71225
rhand -16.3573 8.66972
rfingers 7.12502
rthumb 9.85548 -21.0796
lclavicle 2.54072e-015 -1.54058e-015
lhumerus -35.1497 8.57061 80.1422
lradius 31.2358
lwrist -10.2745
lhand -14.9752 27.6674
lfingers 7.12502
lthumb 11.1887 57.3491
rfemur -17.4592 -3.5985 15.0751
rtibia 28.8375
rfoot -3.45432 -11.9337
rtoes 7.51755
lfemur 7.57387 -19.6722 -19.9277
ltibia 27.9029
lfoot 8.93718 -23.1406
ltoes 2.97534
305
root -2.86405 17.9318 -1.38051 -3.97995 -32.432 3.19483
lowerback 12.1665 6.18273 1.85461
upperback 1.9436 8.31245 -1.94228
thorax -4.16515 4.06982 -4.31587
lowerneck -19.0319 14.6196 -3.52184
upperneck 43.9332 24.2422 1.89953
head 19.3399 9.05073 6.41762
rclavicle -8.27286e-014 1.46852e-014
rhumerus -41.0682 -16.4279 -74.7281
rradius 33.0808
rwrist 2.70546
rhand -16.3196 8.82692
rfingers 7.12502
rthumb 9.89178 -20.9207
lclavicle -8.27286e-014 1.46852e-014
lhumerus -35.0289 8.27588 80.4613
lradius 31.528
lwrist -9.56773
lhand -15.1065 27.7343
lfingers 7.12502
lthumb 11.062 57.4228
rfemur -18.0854 -3.7124 14.737
rtibia 29.0549
rfoot -3.0787 -11.8529
rtoes 7.69713
lfemur 8.4504 -19.5688 -20.033
ltibia 25.8475
lfoot 7.3511 -23.5942
ltoes 5.30204
306
root -2.73617 17.9121 -1.44376 -3.91449 -32.2721 3.2564
lowerback 12.1003 6.17821 1.72602
upperback 1.9499 8.28923 -1.94583
thorax -4.14191 4.06073 -4.23793
lowerneck -19.1536 14.6119 -3.61518
upperneck 44.0472 24.2752 1.96531
head 19.4101 9.04027 6.48985
rclavicle 2.31957e-014 1.44119e-015
rhumerus -41.0834 -16.4572 -74.5775
rradius 33.0176
rwrist 2.67119
rhand -16.2409 8.57822
rfingers 7.12502
rthumb 9.96773 -21.1658
lclavicle 2.31957e-014 1.44119e-015
lhumerus -34.7781 8.03624 80.759
lradius 31.7466
lwrist -9.11887
lhand -15.1774 27.8924
lfingers 7.12502
lthumb 10.9937 57.5845
rfemur -18.6387 -3.66117 14.3848
rtibia 29.1077
rfoot -2.74671 -11.9559
rtoes 8.52342
lfemur 9.21893 -19.4014 -20.168
ltibia 23.9852
lfoot 5.05755 -23.4628
ltoes 7.68653
307
root -2.60458 17.8978 -1.51128 -3.77014 -32.1156 3.10544
lowerback 12.1961 6.18864 1.82223
upperback 1.88898 8.31691 -1.9407
thorax -4.24329 4.06956 -4.30579
lowerneck -19.0713 14.5173 -3.82821
upperneck 43.8817 24.0972 2.08827
head 19.2206 8.99291 6.49677
rclavicle -8.28497e-014 2.37299e-014
rhumerus -41.2811 -16.5349 -74.3997
rradius 32.9886
rwrist 2.69113
rhand -16.0542 8.5298
rfingers 7.12502
rthumb 10.1478 -21.2055
lclavicle -8.28497e-014 2.37299e-014
lhumerus -34.6703 7.80833 80.9633
lradius 32.1221
lwrist -9.06644
lhand -14.7864 28.2382
lfingers 7.12502
lthumb 11.3707 57.9099
rfemur -19.0988 -3.56987 14.2365
rtibia 29.0281
rfoot -2.38124 -12.1467
rtoes 9.3094
lfemur 9.87682 -18.9744 -20.0764
ltibia 22.2776
lfoot 2.04469 -23.2328
ltoes 4.16857
308
root -2.47108 17.8819 -1.57899 -3.61616 -31.9976 2.95377
lowerback 12.2854 6.19123 1.88541
upperback 1.79592 8.33265 -1.89425
thorax -4.38695 4.07126 -4.31346
lowerneck -18.9363 14.4378 -4.10655
upperneck 43.7872 23.9349 2.29816
head 19.0303 8.95286 6.55016
rclavicle -4.75748e-014 -5.66536e-015
rhumerus -41.5261 -16.545 -74.1497
rradius 32.9753
rwrist 2.71385
rhand -16.0627 8.59086
rfingers 7.12502
rthumb 10.1396 -21.1448
lclavicle -4.75748e-014 -5.66536e-015
lhumerus -34.7147 7.69645 81.151
lradius 32.6258
lwrist -9.18199
lhand -14.3232 28.4452
lfingers 7.12502
lthumb 11.8175 58.0918
rfemur -19.5537 -3.74902 14.1227
rtibia 28.8335
rfoot -1.77801 -11.986
rtoes 9.71484
lfemur 10.3908 -18.284 -19.959
ltibia 20.7155
lfoot -0.545787 -23.1525
ltoes -1.21431
309
root -2.33746 17.8677 -1.6436 -3.55158 -31.9544 2.95627
lowerback 12.3269 6.21777 1.78537
upperback 1.75595 8.35639 -1.86707
thorax -4.46834 4.08146 -4.24348
lowerneck -18.9869 14.551 -3.88758
upperneck 44.1059 24.1588 2.21716
head 19.2943 9.01083 6.58306
rclavicle -5.22742e-014 6.5102e-015
rhumerus -41.6395 -16.545 -73.9599
rradius 32.9787
rwrist 2.84328
rhand -16.0463 8.50005
rfingers 7.12502
rthumb 10.1555 -21.2348
lclavicle -5.22742e-014 6.5102e-015
lhumerus -34.6563 7.58167 81.374
lradius 33.0474
lwrist -9.16781
lhand -14.2897 28.4076
lfingers 7.12502
lthumb 11.8497 58.0523
rfemur -19.9546 -3.79759 13.8563
rtibia 28.5647
rfoot -1.13567 -11.7987
rtoes 10.6795
lfemur 10.8572 -17.5285 -20.0498
ltibia 19.2851
lfoot -2.08492 -22.9827
ltoes -2.14227
310
root -2.20105 17.8573 -1.70993 -3.59299 -31.879 3.12652
lowerback 12.3663 6.23949 1.613
upperback 1.78955 8.35847 -1.92329
thorax -4.47043 4.08469 -4.21119
lowerneck -19.0281 14.6631 -3.58079
upperneck 44.2533 24.3866 1.97694
head 19.5085 9.0745 6.52204
rclavicle -2.40964e-014 8.94531e-016
rhumerus -41.6617 -16.5796 -73.8765
rradius 33.0431
rwrist 2.90569
rhand -15.9175 8.33735
rfingers 7.12502
rthumb 10.2798 -21.3914
lclavicle -2.40964e-014 8.94531e-016
lhumerus -34.5042 7.37075 81.6347
lradius 33.5231
lwrist -8.82103
lhand -15.6255 27.7116
lfingers 7.12502
lthumb 10.5615 57.4262
rfemur -20.3044 -3.66379 13.3991
rtibia 28.2655
rfoot -0.500537 -11.7288
rtoes 11.6717
lfemur 11.2259 -16.6598 -20.3028
ltibia 17.9171
lfoot -3.08811 -22.5748
ltoes 0.295483
311
root -2.06138 17.8453 -1.77594 -3.62379 -31.8123 3.30061
lowerback 12.3936 6.24929 1.47457
upperback 1.80801 8.34921 -1.98426
thorax -4.47711 4.08163 -4.20023
lowerneck -18.9293 14.6599 -3.50537
upperneck 44.1342 24.3911 1.82145
head 19.4604 9.0802 6.42494
rclavicle 2.9563e-014 -1.80646e-014
rhumerus -41.5955 -16.5241 -73.7861
rradius 32.934
rwrist 2.88288
rhand -15.7741 8.2386
rfingers 7.12502
rthumb 10.4181 -21.4833
lclavicle 2.9563e-014 -1.80646e-014
lhumerus -34.3682 7.21432 81.8779
lradius 33.9515
lwrist -8.37258
lhand -16.9395 26.4605
lfingers 7.12502
lthumb 9.29375 56.2357
rfemur -20.661 -3.5522 12.9401
rtibia 27.9427
rfoot 0.138017 -11.6
rtoes 12.2039
lfemur 11.5105 -15.6828 -20.5507
ltibia 16.5551
lfoot -3.64315 -21.9214
ltoes 4.32686
312
root -1.92308 17.8353 -1.8428 -3.70712 -31.8314 3.51021
lowerback 12.5135 6.31809 1.23245
upperback 1.77665 8.40484 -2.02741
thorax -4.59976 4.10813 -4.14065
lowerneck -18.7605 14.6665 -3.45224
upperneck 44.1195 24.3829 1.77727
head 19.4281 9.0901 6.37668
rclavicle 5.66598e-014 3.09607e-014
rhumerus -41.6346 -16.6391 -73.5612
rradius 32.7705
rwrist 3.15509
rhand -15.8877 8.44326
rfingers 7.12502
rthumb 10.3085 -21.2841
lclavicle 5.66598e-014 3.09607e-014
lhumerus -34.2539 7.09593 82.0843
lradius 34.2658
lwrist -8.27456
lhand -15.4975 27.0319
lfingers 7.12502
lthumb 10.6849 56.7402
rfemur -20.9825 -3.51299 12.4885
rtibia 27.6029
rfoot 0.703685 -11.3816
rtoes 12.4392
lfemur 11.8161 -14.8115 -20.8929
ltibia 15.237
lfoot -4.20952 -21.118
ltoes 7.61168
313
root -1.78661 17.8262 -1.91249 -3.80796 -31.8715 3.74197
lowerback 12.6369 6.38262 0.963693
upperback 1.7769 8.44844 -2.0953
thorax -4.69226 4.13013 -4.08873
lowerneck -18.7132 14.7034 -3.47733
upperneck 44.1185 24.4253 1.81763
head 19.397 9.11464 6.39601
rclavicle -7.31776e-014 1.38901e-014
rhumerus -41.6665 -16.6833 -73.4443
rradius 32.7325
rwrist 3.37921
rhand -15.9926 8.66201
rfingers 7.12502
rthumb 10.2073 -21.0703
lclavicle -7.31776e-014 1.38901e-014
lhumerus -34.1686 6.92709 82.2366
lradius 34.7575
lwrist -8.32245
lhand -15.3367 27.2084
lfingers 7.12502
lthumb 10.84 56.9087
rfemur -21.2787 -3.58717 12.0511
rtibia 27.2611
rfoot 0.988425 -11.2031
rtoes 13.5283
lfemur 12.1046 -14.1057 -21.2992
ltibia 13.9453
lfoot -5.05018 -20.3915
ltoes 7.17152
